<?xml version="1.0" encoding="utf-8"?>
<!-- Generator: Adobe Illustrator 23.0.1, SVG Export Plug-In . SVG Version: 6.00 Build 0)  -->
<svg version="1.1" id="Calque_1" xmlns="http://www.w3.org/2000/svg" xmlns:xlink="http://www.w3.org/1999/xlink" x="0px" y="0px"
	 viewBox="0 0 289.1 90.7" style="enable-background:new 0 0 289.1 90.7;" xml:space="preserve">
<style type="text/css">
	.st0{clip-path:url(#SVGID_2_);fill:url(#SVGID_3_);}
	.st1{fill:#37B3E7;}
	.st2{fill:#007EC2;}
	.st3{fill:#F2BB34;}
</style>
<g>
	<g>
		<defs>
			<path id="SVGID_1_" d="M241.9,10.4c0,3.9,3.2,7,7,7c3.9,0,7-3.2,7-7c0-3.9-3.2-7-7-7C245,3.4,241.9,6.5,241.9,10.4"/>
		</defs>
		<clipPath id="SVGID_2_">
			<use xlink:href="#SVGID_1_"  style="overflow:visible;"/>
		</clipPath>
		
			<radialGradient id="SVGID_3_" cx="-14.5054" cy="97.2148" r="0.3999" gradientTransform="matrix(-11.116 -11.116 11.116 -11.116 -989.6463 927.2224)" gradientUnits="userSpaceOnUse">
			<stop  offset="0" style="stop-color:#FFFFFF"/>
			<stop  offset="1" style="stop-color:#F2BB34"/>
		</radialGradient>
		<polygon class="st0" points="263,10.4 248.9,-3.6 234.9,10.4 248.9,24.5 		"/>
	</g>
	<g>
		<path class="st1" d="M248.9,22.5L248.9,22.5c-3.1,0-5.6,2.5-5.6,5.6v1.5c3.8,0,7.5,0,11.3,0.2v-1.6C254.5,25,252,22.5,248.9,22.5"
			/>
		<path class="st1" d="M284,21.5c-5.2,0-8.6,3.2-10.2,6.1c0,0,0-0.1,0-0.1c0-2.8-2.3-5-5-5c-2.8,0-5,2.3-5,5v2.7
			c5,0.4,10.2,0.9,15.3,1.7c0.9-0.3,2-0.5,3.2-0.5c0.6,0,1.1,0,1.6,0c1.8,0.1,3.3-1.3,3.3-3.1v-3.9C287,22.9,285.7,21.5,284,21.5
			L284,21.5"/>
		<path class="st1" d="M55.3,50.1c0.4-1.1,0.7-2.2,1.1-3.3c1.8-5.6,3.5-11.7,5-17.5c0.9-3.5-1.7-6.8-5.3-6.8c-2.7,0-4.9,1.9-5.4,4.5
			c-0.5,3-1.1,6-1.7,8.8c-0.3,1.2-0.5,2.4-0.8,3.5c-0.5,2.3-1.1,4.4-1.6,6.4c-0.4,1.5-0.8,2.8-1.2,4c1.6,0.1,3.3,0.2,4.9,0.2
			C52,50,53.6,50.1,55.3,50.1"/>
		<path class="st1" d="M44.5,49.7c-1.9-5.6-4.2-14-6.1-22.8c-0.5-2.5-2.8-4.3-5.4-4.3h-0.9c-2.6,0-4.8,1.8-5.4,4.3
			c-1,4.8-2.2,9.5-3.3,13.6c-0.7,2.4-1.3,4.7-2,6.7h0c2.8,0.5,8.5,1.2,8.5,1.2c1.9-6.3,2.6-10,2.6-10s0.7,3.8,2.8,10.6l0,0
			C38.5,49.2,41.5,49.5,44.5,49.7L44.5,49.7"/>
		<path class="st1" d="M84.2,21.4c-4.7,0-8.8,0.6-12.2,1.6c-1.9,0.5-3.1,2.3-3.1,4.2c0,2.8,2.6,4.9,5.4,4.2c2.8-0.7,6-1.1,9-1.1
			c3.9,0,5.7,1.4,5.7,3.4c0,1.9-1,3-4.3,3.8L78.5,39c-8.5,2.1-12,6-12.7,11c3.7-0.1,7.4-0.2,11.1-0.4c0-0.1,0.1-0.2,0.1-0.3
			c0.4-1.4,1.5-2.5,4.1-3.4c0.3-0.1,0.6-0.2,0.9-0.3l4.6-1.3c1.3-0.3,2.1-0.7,2.5-1.3l0,0.2c0,0.9,0,5.4,0,5.6
			c3.7-0.3,7.4-0.7,11.2-1.1V36.2C100.2,25,93.8,21.4,84.2,21.4"/>
		<path class="st1" d="M121,30.9h5.4c2.3,0,4.2-1.9,4.2-4.2s-1.9-4.2-4.2-4.2H121v-7.1c0-2.7-2.5-4.7-5.1-4.1
			c-1.1,0.2-2.1,0.5-2.9,0.8c-1.7,0.5-2.9,2.2-2.9,4v6.4h-1.3c-2.3,0-4.2,1.9-4.2,4.2s1.9,4.2,4.2,4.2h1.3v15.4
			c3.8-0.5,7.1-1,10.8-1.6V30.9z"/>
		<path class="st1" d="M134.3,42.7c1.2-0.2,2.4-0.4,3.5-0.6c2.5-0.4,4.9-0.8,7.4-1.2v0c0.1-6.5,3.2-10.8,8.6-10.8c3.2,0,5,1.6,5,4.2
			c0,2.4-1.7,3.9-5.4,4.8l-4.7,1.2l0,0c6.9-1.2,20.9-3.4,20.9-3.4l0,0c0.4-1.6,0.4-3.3,0.4-3.3c0-1.7-0.3-3.3-0.9-4.7
			c-0.8-1.8-2.1-3.3-3.8-4.6c-1.2-0.8-2.7-1.6-4.4-2c-3.3-1-6.9-0.9-6.9-0.9c-11.8,0-19.9,8.5-19.8,21.4v0
			C134.1,42.8,134.2,42.7,134.3,42.7"/>
		<path class="st1" d="M199.9,24.5c0-1.6-1.3-2.9-2.9-2.9c0,0,0,0,0,0c-5.2,0-8.6,3.2-10.1,6c0-2.8-2.3-5.1-5.1-5.1h-0.1
			c-2.8,0-5.1,2.3-5.1,5.1v8.2c4.2-0.6,8.5-1.3,12.6-1.8c1.2-1.6,3.1-2.5,6-2.5c0.6,0,1.1,0,1.6,0c1.7,0.1,3.1-1.3,3.1-2.9V24.5z"/>
		<path class="st1" d="M233.6,29.8c-2.1-6.2-7.5-8.4-15-8.4c-4.6,0-8.8,0.6-12.2,1.5c-1.9,0.5-3.2,2.3-3.2,4.3
			c0,2.8,2.6,4.9,5.4,4.3c3.4-0.8,7-1.2,9.2-1.2c1.1,0,1.9,0.1,2.7,0.3C224.9,30.2,229.2,30,233.6,29.8L233.6,29.8"/>
		<path class="st1" d="M18.8,46.7c-0.7-2.4-1.4-5.2-2-8.2c-0.1-0.4-0.3-1.5-0.3-1.5c-0.7-3.2-1.3-6.6-2-10c-0.5-2.6-2.7-4.5-5.4-4.5
			c-3.6,0-6.2,3.4-5.3,6.9c1,4.1,2.2,8.3,3.5,12.4c0.3,0.9,0.6,1.8,0.8,2.7"/>
		<path class="st2" d="M254.5,29.8c-3.8-0.1-7.5-0.2-11.3-0.2V63h11.3V29.8z"/>
		<path class="st2" d="M263.7,63h10.8V39.5c0-3.9,1.5-6.5,4.5-7.6c-5.1-0.7-10.3-1.3-15.3-1.7V63z"/>
		<path class="st2" d="M152.7,63.7c7.2,0,12.9-1.5,16.7-3.6v-8.9c-5,2.1-11.9,3.8-16.7,3.8c-4.4,0-6.1-2.8-6.1-4.4
			c0-1.7,0.9-2.6,3-3.1l7.1-1.6c7.4-1.7,11.6-4.2,12.8-8.8l0-0.2l-20.9,3.4c-1.8,0.5-2.9,1-3.4,1.5c0,0-0.1-0.5-0.1-1v0
			c-2.5,0.4-11.1,1.8-11.1,1.8l0,0C134.1,55.4,140.3,63.7,152.7,63.7"/>
		<path class="st2" d="M176.5,63h11.3V39.5c0-2.3,0.4-4.2,1.4-5.6c-4.2,0.6-8.5,1.2-12.6,1.8V63z"/>
		<path class="st2" d="M55.3,50.1c-1.7,4.9-3.4,9.1-5.1,12.9h-9.9c-1.6-4.2-3.4-9.4-4.8-14c0,0,0,0,0,0c3,0.3,6.1,0.6,9.1,0.7l0,0h0
			c0,0,0,0,0,0c0.2,0.4,0.3,0.9,0.4,1.3c0.1-0.4,0.3-0.8,0.4-1.2c1.7,0.1,3.3,0.2,4.9,0.2C52,50,55.3,50.1,55.3,50.1"/>
		<path class="st2" d="M21.5,47.2c-0.4,1.4-0.9,2.7-1.3,3.8c-0.5-1.2-0.9-2.6-1.4-4.2c0-0.1-7.3-1.5-10.8-2.2c0,0,3.2,10.3,7,18.5
			H25c3.4-9.1,4.9-14.6,4.9-14.6"/>
		<path class="st2" d="M89,48.7c-0.2,4.1-3.1,6.7-7.7,6.7c-2.7,0-4.7-1.7-4.7-4.4c0-0.5,0-0.9,0.1-1.4c0-0.1,0.1-0.2,0.1-0.3
			c0,0.1-0.1,0.2-0.1,0.3c-3.7,0.2-7.4,0.3-11.1,0.4c0,0,0,0,0,0l0,0c-0.1,0.4-0.1,1.3-0.1,1.9c0,6.5,4.6,11.6,12.2,11.6
			c4.9,0,9.2-1.5,12.2-5.2c0,1.2,0.2,3,0.8,4.6h9.4V47.5C96.4,48,92.7,48.3,89,48.7L89,48.7z"/>
		<path class="st2" d="M121,48.7v-4c-3.8,0.5-7.1,1.1-10.8,1.6v3.3c0,9.1,3.6,14,13.3,14c3.9,0,7.1-0.7,8.4-1v-8.8
			c-1.7,0.6-4,0.9-6.1,0.9C122.5,54.6,121,53.6,121,48.7"/>
		<path class="st2" d="M223.6,42.9v5.2c0,4.4-3,7.2-7.7,7.2c-2.7,0-4.7-1.7-4.7-4.4c0-2.4,0.9-4.1,5.2-5.4l4.6-1.3
			C222.3,43.9,222.8,43.5,223.6,42.9 M219.2,37.4L213,39c-9.6,2.4-12.9,6.8-12.9,12.9c0,6.5,4.6,11.6,12.2,11.6
			c4.9,0,9.2-1.5,12.2-5.2c0,1.2,0.2,3,0.8,4.6h9.2V36.2c0-2.5-0.3-4.6-0.9-6.4c-4.4,0.2-8.7,0.4-13.1,0.7c2,0.5,3,1.7,3,3.1
			C223.5,35.5,222.5,36.6,219.2,37.4"/>
	</g>
	<g>
		<path class="st3" d="M18.6,74.2h-3.6v-1.6h9v1.6h-3.6v11.2h-1.8V74.2z"/>
		<path class="st3" d="M28.3,85.6c-2.6,0-4.2-2-4.2-4.9s1.5-4.9,4.2-4.9s4.2,2,4.2,4.9S30.9,85.6,28.3,85.6z M28.3,77.3
			c-1.7,0-2.3,1.4-2.3,3.4s0.7,3.4,2.3,3.4c1.7,0,2.3-1.4,2.3-3.4S29.9,77.3,28.3,77.3z"/>
		<path class="st3" d="M35,83.9c-0.3-0.6-0.3-1.4-0.3-2.5V76h1.8v4.8c0,1.4,0.1,1.7,0.2,2.1c0.2,0.6,0.7,1,1.5,1
			c1.5,0,2.4-0.9,2.4-3.2V76h1.8v9.3h-1.5c-0.1-0.4-0.2-1-0.2-1.4c-0.5,1-1.4,1.7-3,1.7C36.7,85.6,35.5,85.2,35,83.9z"/>
		<path class="st3" d="M45.6,77.4h-1.3V76h1.3v-2.3c0.2-0.1,0.9-0.4,1.8-0.5V76h2.3v1.4h-2.3v4.8c0,1.4,0.2,1.8,1.3,1.8
			c0.4,0,1.1-0.2,1.3-0.3v1.6c-0.2,0.1-0.8,0.2-1.6,0.2c-2.1,0-2.8-1.2-2.8-3.2V77.4z"/>
		<path class="st3" d="M62,85.2c-0.7,0.3-1.3,0.4-2.2,0.4c-2.6,0-4.2-2-4.2-4.9s1.5-4.9,4.2-4.9c0.9,0,1.4,0.1,2.2,0.4v1.5
			c-0.8-0.3-1.3-0.4-2.2-0.4c-1.7,0-2.3,1.4-2.3,3.4s0.7,3.4,2.3,3.4c0.9,0,1.4-0.1,2.2-0.4V85.2z"/>
		<path class="st3" d="M67.8,85.6c-2.6,0-4.2-2-4.2-4.9s1.5-4.9,4.2-4.9c2.6,0,4.2,2,4.2,4.9S70.4,85.6,67.8,85.6z M67.8,77.3
			c-1.7,0-2.3,1.4-2.3,3.4s0.7,3.4,2.3,3.4c1.7,0,2.3-1.4,2.3-3.4S69.5,77.3,67.8,77.3z"/>
		<path class="st3" d="M81.6,77.7c0.5-1,1.5-1.9,3-1.9c1,0,2.1,0.4,2.6,1.6c0.3,0.6,0.3,1.4,0.3,2.5v5.5h-1.8v-4.8
			c0-1.4,0-1.7-0.1-2.1c-0.2-0.6-0.7-1-1.5-1c-1.6,0-2.4,1.1-2.4,3.2v4.7h-1.8v-4.8c0-1.4,0-1.7-0.1-2.1c-0.2-0.6-0.7-1-1.5-1
			c-1.5,0-2.4,1-2.4,3.2v4.7h-1.8V76h1.5c0.1,0.4,0.2,1,0.2,1.4c0.5-1,1.3-1.7,2.9-1.7C79.9,75.8,81.1,76.3,81.6,77.7z"/>
		<path class="st3" d="M97.8,77.7c0.5-1,1.5-1.9,3-1.9c1,0,2.1,0.4,2.6,1.6c0.3,0.6,0.3,1.4,0.3,2.5v5.5h-1.8v-4.8
			c0-1.4,0-1.7-0.1-2.1c-0.2-0.6-0.7-1-1.5-1c-1.6,0-2.4,1.1-2.4,3.2v4.7h-1.8v-4.8c0-1.4,0-1.7-0.1-2.1c-0.2-0.6-0.7-1-1.5-1
			c-1.5,0-2.4,1-2.4,3.2v4.7h-1.8V76H92c0.1,0.4,0.2,1,0.2,1.4c0.5-1,1.3-1.7,2.9-1.7C96.1,75.8,97.3,76.3,97.8,77.7z"/>
		<path class="st3" d="M109.1,81.7c-0.6,0.1-0.9,0.4-0.9,0.9c0,0.5,0.6,1.4,2,1.4c1.2,0,2.5-0.3,3.5-0.8v1.5
			c-0.9,0.5-2.1,0.8-3.5,0.8c-2.7,0-4.2-2-4.2-4.9s1.8-4.9,4.4-4.9c2.4,0,3.4,1.2,3.4,2.7c0,1.6-1,2.3-2.9,2.8L109.1,81.7z
			 M107.9,80.9c0.2-0.2,0.5-0.4,1-0.5l1.6-0.4c1.1-0.3,1.6-0.7,1.6-1.4c0-0.8-0.5-1.3-1.6-1.3c-1.6,0-2.6,1.3-2.6,3.4V80.9z"/>
		<path class="st3" d="M123.6,77.4c0.3,0.6,0.3,1.4,0.3,2.5v5.5h-1.8v-4.8c0-1.4-0.1-1.7-0.2-2.1c-0.2-0.6-0.7-1-1.5-1
			c-1.5,0-2.4,0.9-2.4,3.2v4.7h-1.8V76h1.5c0.1,0.4,0.2,1,0.2,1.4c0.5-1,1.4-1.7,3-1.7C122,75.8,123.1,76.2,123.6,77.4z"/>
		<path class="st3" d="M132.6,85.2c-0.7,0.3-1.3,0.4-2.2,0.4c-2.6,0-4.2-2-4.2-4.9s1.5-4.9,4.2-4.9c0.9,0,1.4,0.1,2.2,0.4v1.5
			c-0.8-0.3-1.3-0.4-2.2-0.4c-1.7,0-2.3,1.4-2.3,3.4s0.7,3.4,2.3,3.4c0.9,0,1.4-0.1,2.2-0.4V85.2z"/>
		<path class="st3" d="M137.3,81.7c-0.6,0.1-0.9,0.4-0.9,0.9c0,0.5,0.6,1.4,2,1.4c1.2,0,2.5-0.3,3.5-0.8v1.5
			c-0.9,0.5-2.1,0.8-3.5,0.8c-2.7,0-4.2-2-4.2-4.9s1.8-4.9,4.4-4.9c2.4,0,3.4,1.2,3.4,2.7c0,1.6-1,2.3-2.9,2.8L137.3,81.7z
			 M136,80.9c0.2-0.2,0.5-0.4,1-0.5l1.6-0.4c1.1-0.3,1.6-0.7,1.6-1.4c0-0.8-0.5-1.3-1.6-1.3c-1.6,0-2.6,1.3-2.6,3.4V80.9z"/>
		<path class="st3" d="M156.8,80.7c0,2.9-1.2,4.9-3.9,4.9c-1.1,0-2.1-0.6-2.4-1.4V89h-1.8V76h1.5c0.1,0.4,0.2,0.7,0.2,1.1
			c0.6-0.8,1.3-1.4,2.5-1.4C155.6,75.8,156.8,77.8,156.8,80.7z M150.6,80.7c0,2,0.5,3.3,2.2,3.3c1.7,0,2.2-1.3,2.2-3.3
			s-0.5-3.4-2.2-3.4C151.1,77.3,150.6,78.7,150.6,80.7z"/>
		<path class="st3" d="M166.1,85.4h-1.5c-0.1-0.4-0.2-0.6-0.2-1c-1,1-1.9,1.2-3,1.2c-1.5,0-2.7-1.2-2.7-2.7c0-1.3,0.7-2.3,2.8-2.9
			l1.6-0.4c0.9-0.3,1.3-0.5,1.3-1.1c0-0.6-0.5-1.1-1.7-1.1c-1.1,0-2.3,0.3-3.2,0.6v-1.5c0.8-0.4,2.1-0.6,3.2-0.6
			c2.2,0,3.4,0.9,3.4,3.3V85.4z M164.3,80.4c-0.2,0.2-0.3,0.3-0.8,0.4l-1.5,0.4c-1.4,0.4-1.6,0.9-1.6,1.5c0,0.8,0.5,1.3,1.4,1.3
			c1.6,0,2.5-0.9,2.5-2V80.4z"/>
		<path class="st3" d="M169,76h1.5c0.1,0.4,0.2,0.8,0.2,1.2c0.5-0.8,1.5-1.4,2.5-1.4c0.3,0,0.5,0,0.7,0.1v1.7
			c-0.3-0.1-0.6-0.2-0.9-0.2c-1.6,0-2.1,0.8-2.1,2.3v5.5H169V76z"/>
		<path class="st3" d="M179.9,72.1h1.8v10.3c0,1.1,0.2,1.4,0.9,1.4h0.4v1.5c-0.2,0-0.5,0.1-0.8,0.1c-1.5,0-2.3-0.9-2.3-3V72.1z"/>
		<path class="st3" d="M187.4,81.7c-0.6,0.1-0.9,0.4-0.9,0.9c0,0.5,0.6,1.4,2,1.4c1.2,0,2.5-0.3,3.5-0.8v1.5
			c-0.9,0.5-2.1,0.8-3.5,0.8c-2.7,0-4.2-2-4.2-4.9s1.8-4.9,4.4-4.9c2.4,0,3.4,1.2,3.4,2.7c0,1.6-1,2.3-2.9,2.8L187.4,81.7z
			 M186.2,80.9c0.2-0.2,0.5-0.4,1-0.5l1.6-0.4c1.1-0.3,1.6-0.7,1.6-1.4c0-0.8-0.5-1.3-1.6-1.3c-1.6,0-2.6,1.3-2.6,3.4V80.9z"/>
		<path class="st3" d="M200.6,77.3c0.6-1,1.5-1.5,2.6-1.5c2.5,0,3.6,2.1,3.6,4.9c0,2.9-1.6,4.9-4.2,4.9c-3.5,0-3.8-2.5-3.8-5.3v-8.2
			h1.8V77.3z M200.5,80.7c0,2.5,0.6,3.4,2.1,3.4c1.7,0,2.3-1.4,2.3-3.4s-0.5-3.3-2.1-3.3C201.1,77.4,200.5,78.7,200.5,80.7z"/>
		<path class="st3" d="M212.8,85.6c-2.6,0-4.2-2-4.2-4.9s1.5-4.9,4.2-4.9s4.2,2,4.2,4.9S215.4,85.6,212.8,85.6z M212.8,77.3
			c-1.7,0-2.3,1.4-2.3,3.4s0.7,3.4,2.3,3.4c1.7,0,2.3-1.4,2.3-3.4S214.5,77.3,212.8,77.3z"/>
		<path class="st3" d="M226.6,77.4c0.3,0.6,0.3,1.4,0.3,2.5v5.5h-1.8v-4.8c0-1.4-0.1-1.7-0.2-2.1c-0.2-0.6-0.7-1-1.5-1
			c-1.5,0-2.4,0.9-2.4,3.2v4.7h-1.8V76h1.5c0.1,0.4,0.2,1,0.2,1.4c0.5-1,1.4-1.7,3-1.7C225,75.8,226.1,76.2,226.6,77.4z"/>
		<path class="st3" d="M239.9,85.2c-0.7,0.3-1.3,0.4-2.2,0.4c-2.6,0-4.2-2-4.2-4.9s1.5-4.9,4.2-4.9c0.9,0,1.4,0.1,2.2,0.4v1.5
			c-0.8-0.3-1.3-0.4-2.2-0.4c-1.7,0-2.3,1.4-2.3,3.4s0.7,3.4,2.3,3.4c0.9,0,1.4-0.1,2.2-0.4V85.2z"/>
		<path class="st3" d="M248,80.5c0-1.4-0.1-1.7-0.2-2.1c-0.2-0.6-0.7-1-1.5-1c-1.5,0-2.4,0.9-2.4,3.2v4.7h-1.8V72.1h1.8v5.3
			c0.5-1,1.4-1.6,2.9-1.6c1,0,2.1,0.4,2.6,1.6c0.3,0.6,0.3,1.4,0.3,2.5v5.5H248V80.5z"/>
		<path class="st3" d="M256.3,85.6c-2.6,0-4.2-2-4.2-4.9s1.5-4.9,4.2-4.9c2.6,0,4.2,2,4.2,4.9S258.9,85.6,256.3,85.6z M256.3,77.3
			c-1.7,0-2.3,1.4-2.3,3.4s0.7,3.4,2.3,3.4c1.7,0,2.3-1.4,2.3-3.4S258,77.3,256.3,77.3z"/>
		<path class="st3" d="M263.7,72c0.7,0,1.3,0.6,1.3,1.3c0,0.7-0.6,1.3-1.3,1.3c-0.7,0-1.3-0.6-1.3-1.3C262.4,72.5,263,72,263.7,72z
			 M262.8,76h1.8v9.3h-1.8V76z"/>
		<path class="st3" d="M272.8,85.4c-0.4-0.9-1.4-2.5-2.2-3.6c-0.8,1.1-1.8,2.7-2.2,3.6h-1.9c0.7-1.5,1.8-3.1,3.1-4.8
			c-1.1-1.5-2.3-3.1-3-4.6h1.9c0.6,1.1,1.3,2.3,2,3.4c0.8-1.1,1.4-2.3,2-3.4h1.9c-0.7,1.5-1.9,3.1-3,4.6c1.3,1.6,2.4,3.3,3.1,4.8
			H272.8z"/>
	</g>
	<path class="st2" d="M4.7,4c0.4-0.1,1.4-0.1,2.1-0.1C9.1,3.9,10,5,10,6.4c0,2-0.6,2.8-2.5,3c-2,0.2-2.3,0.4-2.7,0.6V4z M4.7,13.3
		c0-2.5,0-2.6,2.6-2.7c2.4-0.2,4-1.4,4-4.1c0-2.5-1.9-3.7-4.3-3.7C5.9,2.7,4.4,2.8,3.6,3v12.5h1.2V13.3z"/>
	<path class="st2" d="M14,4.5c0.5,0,1-0.4,1-1c0-0.5-0.4-1-1-1c-0.5,0-1,0.4-1,1C13,4,13.4,4.5,14,4.5"/>
	<rect x="13.4" y="6.4" class="st2" width="1.2" height="9.1"/>
	<path class="st2" d="M23,12.7c0-1.2-0.7-2-2-2.4L20,10c-1.4-0.5-1.7-0.8-1.7-1.6c0-0.8,0.6-1.3,1.7-1.3c1.1,0,2.2,0.4,2.6,0.7V6.6
		C22.1,6.3,21.1,6,20.1,6c-2.1,0-3,1.2-3,2.5c0,1.5,0.8,2.1,2.1,2.5l1,0.4c1.2,0.4,1.6,0.8,1.6,1.6c0,1-0.8,1.5-2.2,1.5
		c-1,0-2.2-0.4-2.6-0.7v1.1c0.8,0.4,1.5,0.6,2.5,0.6C21.8,15.4,23,14.5,23,12.7"/>
	<path class="st2" d="M28.8,15.4c0.7,0,1.2-0.1,2-0.4V14c-0.8,0.3-1.2,0.4-2,0.4c-1.9,0-2.6-1.5-2.6-3.6c0-2.2,0.7-3.6,2.6-3.6
		c0.9,0,1.2,0.1,2,0.4V6.4C30,6.1,29.5,6,28.8,6C26.4,6,25,7.8,25,10.7C25,13.6,26.4,15.4,28.8,15.4"/>
	<rect x="33.2" y="6.4" class="st2" width="1.2" height="9.1"/>
	<path class="st2" d="M33.7,4.5c0.5,0,1-0.4,1-1c0-0.5-0.4-1-1-1c-0.5,0-1,0.4-1,1C32.7,4,33.2,4.5,33.7,4.5"/>
	<path class="st2" d="M38.3,10.7c0-2.4,1.1-3.5,2.8-3.5c0.9,0,1.5,0.5,1.8,1.2c0.1,0.4,0.2,0.6,0.2,2.2v4.9h1.2V9.9
		c0-1.2-0.1-1.8-0.4-2.4c-0.5-1.2-1.7-1.5-2.5-1.5c-1.6,0-2.6,0.8-3.1,1.8c0-0.4,0-1-0.1-1.4h-1.1v9.1h1.2V10.7z"/>
	<path class="st2" d="M47.4,11c0-2.4,1.2-3.9,3-3.9c1.2,0,1.9,0.5,1.9,1.5c0,0.7-0.6,1.2-1.8,1.5l-1.9,0.5c-0.4,0.1-0.8,0.3-1.2,0.5
		V11z M50.2,15.4c1.3,0,2.3-0.3,3.1-0.7v-1.1c-0.8,0.5-1.9,0.8-3.1,0.8c-1.6,0-2.2-1.2-2.2-1.7c0-0.5,0.3-0.9,0.9-1l2-0.5
		c1.7-0.4,2.7-1.2,2.7-2.7c0-1.4-0.9-2.5-3.1-2.5c-2.3,0-4.1,1.9-4.1,4.7C46.4,13.6,47.6,15.4,50.2,15.4"/>
	<path class="st2" d="M61.6,12.7c0-1.2-0.7-2-2-2.4l-1-0.3c-1.4-0.5-1.7-0.8-1.7-1.6c0-0.8,0.6-1.3,1.7-1.3c1.1,0,1.9,0.4,2.7,0.7
		V6.6C60.4,6.3,59.7,6,58.7,6c-2.1,0-3.1,1.2-3.1,2.5c0,1.5,0.8,2.1,2.1,2.5l1,0.4c1.2,0.4,1.6,0.8,1.6,1.6c0,1-0.8,1.5-2.3,1.5
		c-1,0-1.9-0.4-2.7-0.7v1.1c0.8,0.4,1.6,0.6,2.6,0.6C60.2,15.4,61.6,14.5,61.6,12.7"/>
</g>
</svg>
